#!OML:ASF E:\Style4\Style4.ASF
:FULLY-SPECIFIED
:DEGREES
848
root -0.00739166 16.8293 -1.75209 9.65544 -1.33335 3.66925
lowerback 8.26053 1.09701 -2.24158
upperback 1.54102 1.19871 -1.82932
thorax -3.04142 0.609371 -0.760002
lowerneck 3.4897 -3.75255 -7.98533
upperneck 2.43167 -5.31837 5.32556
head 0.551576 -2.72387 3.1246
rclavicle -1.2424e-016 6.95746e-016
rhumerus -97.1284 61.3875 -134.527
rradius 86.9785
rwrist 4.36867
rhand -20.4962 39.7646
rfingers 7.12502
rthumb 5.86078 9.86561
lclavicle -1.2424e-016 6.95746e-016
lhumerus -34.1426 -1.87626 61.3675
lradius 77.6102
lwrist 46.2686
lhand -3.6337 18.7182
lfingers 7.12502
lthumb 22.1057 47.4745
rfemur -35.5353 0.0839572 14.0505
rtibia 55.6905
rfoot -27.3268 -15.0776
rtoes -12.3709
lfemur -33.1041 -0.556677 -23.244
ltibia 52.4232
lfoot -27.3462 7.56405
ltoes -17.1237
849
root -0.00756859 16.8286 -1.75152 9.68439 -1.2974 3.71735
lowerback 8.23271 1.0959 -2.2234
upperback 1.54793 1.19861 -1.87307
thorax -3.01748 0.608906 -0.81473
lowerneck 3.44051 -3.77679 -7.96333
upperneck 2.45442 -5.34676 5.32004
head 0.568699 -2.73748 3.11689
rclavicle 1.70085e-014 -1.799e-014
rhumerus -97.0058 61.3608 -134.466
rradius 86.9591
rwrist 4.35735
rhand -20.6082 39.7071
rfingers 7.12502
rthumb 5.75266 9.80521
lclavicle 1.70085e-014 -1.799e-014
lhumerus -34.0784 -1.9171 61.371
lradius 77.5665
lwrist 46.2555
lhand -2.88505 18.3479
lfingers 7.12502
lthumb 22.8243 47.0175
rfemur -35.5666 0.0235262 14.0039
rtibia 55.7094
rfoot -27.3089 -15.1307
rtoes -12.5522
lfemur -33.1313 -0.626897 -23.2926
ltibia 52.4265
lfoot -27.3151 7.58116
ltoes -17.1226
850
root -0.00789412 16.8292 -1.75078 9.70375 -1.31483 3.71442
lowerback 8.22952 1.09577 -2.19598
upperback 1.52393 1.19983 -1.88643
thorax -3.03973 0.609417 -0.844355
lowerneck 3.49752 -3.76751 -7.97528
upperneck 2.43065 -5.33855 5.3265
head 0.551083 -2.73394 3.1231
rclavicle 7.54139e-015 -2.06239e-014
rhumerus -97.0967 61.3433 -134.574
rradius 86.9441
rwrist 4.36422
rhand -20.6134 39.6953
rfingers 7.12502
rthumb 5.74761 9.79323
lclavicle 7.54139e-015 -2.06239e-014
lhumerus -34.1253 -1.9443 61.3707
lradius 77.5725
lwrist 46.3058
lhand -2.86356 18.3594
lfingers 7.12502
lthumb 22.8449 47.0264
rfemur -35.593 0.0464538 14.0016
rtibia 55.718
rfoot -27.3812 -15.0747
rtoes -12.4606
lfemur -33.1452 -0.626732 -23.2926
ltibia 52.428
lfoot -27.2871 7.58518
ltoes -16.9981
851
root -0.00988139 16.8304 -1.74945 9.67692 -1.36693 3.71511
lowerback 8.26301 1.12022 -2.20838
upperback 1.52867 1.2298 -1.89395
thorax -3.05361 0.624404 -0.849083
lowerneck 3.51206 -3.77301 -7.95516
upperneck 2.40083 -5.34535 5.30553
head 0.538204 -2.73703 3.11279
rclavicle 5.40446e-015 -9.88954e-015
rhumerus -97.1541 61.3388 -134.627
rradius 86.9286
rwrist 4.38388
rhand -20.6385 39.7072
rfingers 7.12502
rthumb 5.72342 9.80446
lclavicle 5.40446e-015 -9.88954e-015
lhumerus -34.129 -1.98853 61.4007
lradius 77.5947
lwrist 46.4191
lhand -3.76326 18.991
lfingers 7.12502
lthumb 21.9813 47.762
rfemur -35.5729 0.0947219 14.0018
rtibia 55.7174
rfoot -27.3723 -15.0516
rtoes -12.2452
lfemur -33.0981 -0.599937 -23.2872
ltibia 52.4181
lfoot -27.3544 7.5147
ltoes -16.7809
852
root -0.0113418 16.8308 -1.74789 9.67254 -1.39344 3.69424
lowerback 8.2635 1.12992 -2.20122
upperback 1.53514 1.24364 -1.88815
thorax -3.04719 0.631164 -0.848505
lowerneck 3.51572 -3.77195 -7.95644
upperneck 2.38426 -5.3438 5.29859
head 0.531962 -2.73615 3.11095
rclavicle 3.52843e-015 4.47266e-015
rhumerus -97.1886 61.3421 -134.672
rradius 86.8878
rwrist 4.4123
rhand -20.681 39.7691
rfingers 7.12502
rthumb 5.68237 9.86526
lclavicle 3.52843e-015 4.47266e-015
lhumerus -34.0978 -1.98515 61.4165
lradius 77.5678
lwrist 46.4912
lhand -4.1648 19.3889
lfingers 7.12502
lthumb 21.5957 48.2047
rfemur -35.5482 0.109833 14.026
rtibia 55.6891
rfoot -27.3242 -15.0635
rtoes -12.1601
lfemur -33.0825 -0.595701 -23.2671
ltibia 52.4236
lfoot -27.3663 7.61719
ltoes -17.0851
853
root -0.0124962 16.8299 -1.7477 9.68668 -1.4072 3.71901
lowerback 8.25911 1.12966 -2.23791
upperback 1.53716 1.24007 -1.89495
thorax -3.04327 0.629676 -0.834451
lowerneck 3.50724 -3.75536 -7.96387
upperneck 2.35867 -5.32131 5.33094
head 0.52484 -2.72468 3.12365
rclavicle -1.39895e-014 1.26725e-014
rhumerus -97.2137 61.3616 -134.687
rradius 86.9042
rwrist 4.3855
rhand -20.5742 39.7705
rfingers 7.12502
rthumb 5.7855 9.86953
lclavicle -1.39895e-014 1.26725e-014
lhumerus -34.0795 -2.00107 61.4287
lradius 77.5222
lwrist 46.5138
lhand -4.18034 19.3562
lfingers 7.12502
lthumb 21.5808 48.1738
rfemur -35.5993 0.122295 13.9922
rtibia 55.6628
rfoot -27.2077 -15.1497
rtoes -12.5679
lfemur -33.1047 -0.574994 -23.2977
ltibia 52.4456
lfoot -27.3611 7.65803
ltoes -17.2864
854
root -0.0137806 16.8279 -1.748 9.69571 -1.48446 3.66316
lowerback 8.27023 1.14764 -2.20682
upperback 1.52633 1.26604 -1.89055
thorax -3.06017 0.64239 -0.850567
lowerneck 3.48294 -3.73535 -7.95027
upperneck 2.38096 -5.2931 5.34302
head 0.534121 -2.71043 3.12453
rclavicle 1.16786e-014 -8.94531e-016
rhumerus -97.312 61.3696 -134.812
rradius 86.8857
rwrist 4.36544
rhand -20.5675 39.7703
rfingers 7.12502
rthumb 5.79189 9.86947
lclavicle 1.16786e-014 -8.94531e-016
lhumerus -34.1035 -2.02213 61.4353
lradius 77.5195
lwrist 46.5028
lhand -4.18426 19.372
lfingers 7.12502
lthumb 21.577 48.1899
rfemur -35.6615 0.194786 14.0459
rtibia 55.6424
rfoot -27.0633 -15.2739
rtoes -13.1358
lfemur -33.1323 -0.515648 -23.2411
ltibia 52.4892
lfoot -27.4105 7.6973
ltoes -17.4843
855
root -0.0149813 16.825 -1.75029 9.73552 -1.62191 3.59625
lowerback 8.26855 1.19784 -2.16992
upperback 1.50017 1.33532 -1.88628
thorax -3.08575 0.67662 -0.874745
lowerneck 3.44669 -3.73834 -7.92696
upperneck 2.45619 -5.29511 5.33273
head 0.563678 -2.71149 3.11484
rclavicle 1.46355e-014 -1.14301e-015
rhumerus -97.3602 61.3689 -134.87
rradius 86.8668
rwrist 4.3208
rhand -20.6539 39.852
rfingers 7.12502
rthumb 5.70849 9.94893
lclavicle 1.46355e-014 -1.14301e-015
lhumerus -34.1116 -2.08512 61.4634
lradius 77.5152
lwrist 46.4926
lhand -3.88952 19.0804
lfingers 7.12502
lthumb 21.86 47.8656
rfemur -35.7294 0.268821 14.1152
rtibia 55.6712
rfoot -27.0875 -15.1829
rtoes -12.9524
lfemur -33.2195 -0.414712 -23.1856
ltibia 52.5417
lfoot -27.4208 7.75888
ltoes -17.538
856
root -0.016466 16.8242 -1.75135 9.75709 -1.68178 3.58315
lowerback 8.25736 1.22077 -2.18368
upperback 1.4926 1.36489 -1.88125
thorax -3.08786 0.691468 -0.864891
lowerneck 3.43745 -3.73166 -7.95982
upperneck 2.50364 -5.28818 5.37271
head 0.582259 -2.70866 3.13402
rclavicle -2.07481e-015 1.98785e-016
rhumerus -97.3973 61.3805 -134.879
rradius 86.8826
rwrist 4.32845
rhand -20.6462 39.9101
rfingers 7.12502
rthumb 5.71599 10.0072
lclavicle -2.07481e-015 1.98785e-016
lhumerus -34.1325 -2.10847 61.4953
lradius 77.5145
lwrist 46.4926
lhand -3.57234 18.7241
lfingers 7.12502
lthumb 22.1646 47.4735
rfemur -35.7649 0.297585 14.13
rtibia 55.7153
rfoot -27.2105 -15.0244
rtoes -12.4654
lfemur -33.2639 -0.378528 -23.1739
ltibia 52.573
lfoot -27.4047 7.7696
ltoes -17.4802
857
root -0.0189673 16.825 -1.75075 9.77213 -1.6495 3.58488
lowerback 8.24849 1.22179 -2.19222
upperback 1.48737 1.36601 -1.87178
thorax -3.08876 0.692171 -0.850299
lowerneck 3.40547 -3.7367 -8.01179
upperneck 2.56567 -5.29611 5.41167
head 0.611168 -2.71329 3.15567
rclavicle -1.17531e-014 -7.40473e-015
rhumerus -97.3929 61.3662 -134.817
rradius 86.912
rwrist 4.2981
rhand -20.384 39.9146
rfingers 7.12502
rthumb 5.96909 10.0187
lclavicle -1.17531e-014 -7.40473e-015
lhumerus -34.1508 -2.14163 61.5399
lradius 77.5367
lwrist 46.4759
lhand -3.98556 19.0206
lfingers 7.12502
lthumb 21.7678 47.8165
rfemur -35.7829 0.26717 14.1399
rtibia 55.7344
rfoot -27.2542 -15.0003
rtoes -12.3873
lfemur -33.2819 -0.415015 -23.1594
ltibia 52.5845
lfoot -27.4349 7.83586
ltoes -17.6525
858
root -0.0212464 16.8256 -1.74943 9.80379 -1.61981 3.55357
lowerback 8.21862 1.22888 -2.1494
upperback 1.48401 1.38029 -1.86899
thorax -3.07471 0.698838 -0.872297
lowerneck 3.38301 -3.74165 -8.00772
upperneck 2.59021 -5.30201 5.44328
head 0.624285 -2.71616 3.16489
rclavicle -2.35808e-014 -1.2921e-015
rhumerus -97.3282 61.348 -134.721
rradius 86.9104
rwrist 4.26292
rhand -20.228 40.0075
rfingers 7.12502
rthumb 6.1197 10.1158
lclavicle -2.35808e-014 -1.2921e-015
lhumerus -34.115 -2.18963 61.5649
lradius 77.5211
lwrist 46.4557
lhand -4.28056 19.3215
lfingers 7.12502
lthumb 21.4845 48.15
rfemur -35.7966 0.252979 14.1891
rtibia 55.7298
rfoot -27.2678 -14.9989
rtoes -12.4562
lfemur -33.3084 -0.428073 -23.1108
ltibia 52.5806
lfoot -27.4453 7.81423
ltoes -17.5626
